<mxfile host="Electron" modified="2023-04-20T01:22:39.324Z" agent="Mozilla/5.0 (Windows NT 10.0; Win64; x64) AppleWebKit/537.36 (KHTML, like Gecko) draw.io/21.1.2 Chrome/106.0.5249.199 Electron/21.4.3 Safari/537.36" etag="aQkS5CbzRVH9pZHZ36at" version="21.1.2" type="device" pages="2">
  <diagram id="C5RBs43oDa-KdzZeNtuy" name="Page-1">
    <mxGraphModel dx="1036" dy="614" grid="1" gridSize="10" guides="1" tooltips="1" connect="1" arrows="1" fold="1" page="1" pageScale="1" pageWidth="827" pageHeight="1169" math="0" shadow="0">
      <root>
        <mxCell id="WIyWlLk6GJQsqaUBKTNV-0" />
        <mxCell id="WIyWlLk6GJQsqaUBKTNV-1" parent="WIyWlLk6GJQsqaUBKTNV-0" />
        <mxCell id="HwNmOuMO5YsHIcAg15op-0" value="Entrada:&lt;br&gt;&lt;div style=&quot;text-align: left;&quot;&gt;&lt;span style=&quot;background-color: initial;&quot;&gt;- Lista de documentos&lt;/span&gt;&lt;/div&gt;&lt;div style=&quot;text-align: left;&quot;&gt;&lt;span style=&quot;background-color: initial;&quot;&gt;- Recebe um diretorio&lt;/span&gt;&lt;/div&gt;" style="rounded=0;whiteSpace=wrap;html=1;" parent="WIyWlLk6GJQsqaUBKTNV-1" vertex="1">
          <mxGeometry x="190" y="150" width="180" height="60" as="geometry" />
        </mxCell>
        <mxCell id="HwNmOuMO5YsHIcAg15op-1" value="Carrega as bibliotecas e dependencias" style="rounded=0;whiteSpace=wrap;html=1;" parent="WIyWlLk6GJQsqaUBKTNV-1" vertex="1">
          <mxGeometry x="190" y="40" width="180" height="60" as="geometry" />
        </mxCell>
      </root>
    </mxGraphModel>
  </diagram>
  <diagram id="jv9fjiyloSt1m6qKhNs6" name="Página-2">
    <mxGraphModel dx="1366" dy="804" grid="0" gridSize="10" guides="1" tooltips="1" connect="1" arrows="1" fold="1" page="1" pageScale="1" pageWidth="827" pageHeight="1169" math="0" shadow="0">
      <root>
        <mxCell id="0" />
        <mxCell id="1" parent="0" />
        <mxCell id="ZCzI_yh4BXFCKGwBEh-x-1" value="Portal de dados abertos&amp;nbsp;&lt;br&gt;CVM" style="verticalAlign=top;align=left;spacingTop=8;spacingLeft=2;spacingRight=12;shape=cube;size=10;direction=south;fontStyle=4;html=1;whiteSpace=wrap;" vertex="1" parent="1">
          <mxGeometry x="67" y="123" width="310" height="190" as="geometry" />
        </mxCell>
        <mxCell id="ZCzI_yh4BXFCKGwBEh-x-2" value="&amp;nbsp;/conjunto de dados&lt;br&gt;&amp;nbsp; &amp;nbsp;/Companhias&lt;br&gt;&amp;nbsp; &amp;nbsp; &amp;nbsp; /Documentos periodicos(IPE)&lt;br&gt;&lt;span style=&quot;white-space: pre;&quot;&gt;	&lt;/span&gt;&amp;nbsp;/Ata&lt;br&gt;&lt;span style=&quot;white-space: pre;&quot;&gt;	&lt;/span&gt;&amp;nbsp;/Relatorios dados economico financeiro&lt;br&gt;&amp;nbsp; &amp;nbsp; &amp;nbsp; /Formulario de referencia(FRE)" style="html=1;whiteSpace=wrap;align=left;" vertex="1" parent="1">
          <mxGeometry x="97" y="183" width="250" height="110" as="geometry" />
        </mxCell>
        <mxCell id="ZCzI_yh4BXFCKGwBEh-x-3" value="Notebook" style="verticalAlign=top;align=left;spacingTop=8;spacingLeft=2;spacingRight=12;shape=cube;size=10;direction=south;fontStyle=4;html=1;whiteSpace=wrap;" vertex="1" parent="1">
          <mxGeometry x="37" y="433" width="460" height="290" as="geometry" />
        </mxCell>
        <mxCell id="ZCzI_yh4BXFCKGwBEh-x-11" style="edgeStyle=orthogonalEdgeStyle;rounded=0;orthogonalLoop=1;jettySize=auto;html=1;" edge="1" parent="1" source="ZCzI_yh4BXFCKGwBEh-x-10" target="ZCzI_yh4BXFCKGwBEh-x-2">
          <mxGeometry relative="1" as="geometry" />
        </mxCell>
        <mxCell id="ZCzI_yh4BXFCKGwBEh-x-15" style="edgeStyle=orthogonalEdgeStyle;rounded=0;orthogonalLoop=1;jettySize=auto;html=1;" edge="1" parent="1" source="ZCzI_yh4BXFCKGwBEh-x-10" target="ZCzI_yh4BXFCKGwBEh-x-12">
          <mxGeometry relative="1" as="geometry" />
        </mxCell>
        <mxCell id="ZCzI_yh4BXFCKGwBEh-x-10" value="download_doc&lt;br&gt;.py" style="shape=module;align=center;spacingLeft=20;align=center;verticalAlign=top;whiteSpace=wrap;html=1;fillColor=#FFFFCC;" vertex="1" parent="1">
          <mxGeometry x="162" y="503" width="120" height="50" as="geometry" />
        </mxCell>
        <mxCell id="ZCzI_yh4BXFCKGwBEh-x-16" style="edgeStyle=orthogonalEdgeStyle;rounded=0;orthogonalLoop=1;jettySize=auto;html=1;entryX=1;entryY=0.5;entryDx=0;entryDy=0;" edge="1" parent="1" source="ZCzI_yh4BXFCKGwBEh-x-12" target="ZCzI_yh4BXFCKGwBEh-x-10">
          <mxGeometry relative="1" as="geometry" />
        </mxCell>
        <mxCell id="ZCzI_yh4BXFCKGwBEh-x-12" value="Lista de documentos&lt;br&gt;.csv" style="html=1;whiteSpace=wrap;fillColor=#CCFFFF;" vertex="1" parent="1">
          <mxGeometry x="357" y="508" width="120" height="40" as="geometry" />
        </mxCell>
        <mxCell id="ZCzI_yh4BXFCKGwBEh-x-18" value="filesystem&lt;br&gt;/empresa/ano/" style="verticalAlign=top;align=left;spacingTop=8;spacingLeft=2;spacingRight=12;shape=cube;size=10;direction=south;fontStyle=4;html=1;whiteSpace=wrap;" vertex="1" parent="1">
          <mxGeometry x="296" y="583" width="190" height="140" as="geometry" />
        </mxCell>
        <mxCell id="ZCzI_yh4BXFCKGwBEh-x-17" value="documento&lt;br&gt;.pdf" style="html=1;whiteSpace=wrap;fillColor=#CCFFFF;" vertex="1" parent="1">
          <mxGeometry x="341" y="643" width="120" height="40" as="geometry" />
        </mxCell>
        <mxCell id="ZCzI_yh4BXFCKGwBEh-x-19" style="edgeStyle=orthogonalEdgeStyle;rounded=0;orthogonalLoop=1;jettySize=auto;html=1;entryX=0;entryY=0.5;entryDx=0;entryDy=0;" edge="1" parent="1" source="ZCzI_yh4BXFCKGwBEh-x-10" target="ZCzI_yh4BXFCKGwBEh-x-17">
          <mxGeometry relative="1" as="geometry">
            <Array as="points">
              <mxPoint x="237" y="663" />
            </Array>
          </mxGeometry>
        </mxCell>
        <mxCell id="ZCzI_yh4BXFCKGwBEh-x-20" value="1" style="ellipse;whiteSpace=wrap;html=1;aspect=fixed;" vertex="1" parent="1">
          <mxGeometry x="237" y="360" width="24" height="24" as="geometry" />
        </mxCell>
        <mxCell id="ZCzI_yh4BXFCKGwBEh-x-21" value="2" style="ellipse;whiteSpace=wrap;html=1;aspect=fixed;" vertex="1" parent="1">
          <mxGeometry x="308" y="490" width="24" height="24" as="geometry" />
        </mxCell>
        <mxCell id="ZCzI_yh4BXFCKGwBEh-x-22" value="3" style="ellipse;whiteSpace=wrap;html=1;aspect=fixed;" vertex="1" parent="1">
          <mxGeometry x="255" y="627" width="24" height="24" as="geometry" />
        </mxCell>
        <mxCell id="ZCzI_yh4BXFCKGwBEh-x-26" value="&lt;font style=&quot;font-size: 16px;&quot;&gt;Conecta ao portal de dados cvm&lt;br&gt;&lt;/font&gt;" style="text;html=1;align=left;verticalAlign=middle;resizable=0;points=[];autosize=1;strokeColor=none;fillColor=none;" vertex="1" parent="1">
          <mxGeometry x="494" y="175" width="248" height="31" as="geometry" />
        </mxCell>
        <mxCell id="ZCzI_yh4BXFCKGwBEh-x-27" value="&lt;span style=&quot;font-size: 16px;&quot;&gt;Baixa .csv contendo a&lt;br&gt;relação de links e documentos&lt;/span&gt;" style="text;html=1;align=left;verticalAlign=middle;resizable=0;points=[];autosize=1;strokeColor=none;fillColor=none;" vertex="1" parent="1">
          <mxGeometry x="494" y="226" width="234" height="50" as="geometry" />
        </mxCell>
        <mxCell id="ZCzI_yh4BXFCKGwBEh-x-29" value="&lt;font style=&quot;font-size: 16px;&quot;&gt;Baixa o arquivo a &lt;br&gt;partir do seu respectivo link&lt;br&gt;&lt;/font&gt;" style="text;html=1;align=left;verticalAlign=middle;resizable=0;points=[];autosize=1;strokeColor=none;fillColor=none;" vertex="1" parent="1">
          <mxGeometry x="494" y="290" width="213" height="50" as="geometry" />
        </mxCell>
        <mxCell id="ZCzI_yh4BXFCKGwBEh-x-30" value="1" style="ellipse;whiteSpace=wrap;html=1;aspect=fixed;" vertex="1" parent="1">
          <mxGeometry x="453" y="182" width="24" height="24" as="geometry" />
        </mxCell>
        <mxCell id="ZCzI_yh4BXFCKGwBEh-x-31" value="2" style="ellipse;whiteSpace=wrap;html=1;aspect=fixed;" vertex="1" parent="1">
          <mxGeometry x="453" y="239" width="24" height="24" as="geometry" />
        </mxCell>
        <mxCell id="ZCzI_yh4BXFCKGwBEh-x-32" value="3" style="ellipse;whiteSpace=wrap;html=1;aspect=fixed;" vertex="1" parent="1">
          <mxGeometry x="453" y="303" width="24" height="24" as="geometry" />
        </mxCell>
      </root>
    </mxGraphModel>
  </diagram>
</mxfile>
